<svg id="Layer_5" data-name="Layer 5" xmlns="http://www.w3.org/2000/svg" viewBox="0 0 106 106"><defs><style>.cls-1{fill:none;stroke:#1b283d;stroke-width:5px;}.cls-1,.cls-2{stroke-miterlimit:10;}.cls-2{fill:#1b283d;stroke:#d1d9ef;}</style></defs><title>integration_v2</title><circle class="cls-1" cx="53" cy="53" r="50.5"/><path class="cls-2" d="M269.17,191l-17.5,17.5L245.1,202s-2.18,6.57-6.56,2.19,2.19-6.56,2.19-6.56L234.17,191l6.56-6.57s2.19,6.57,6.56,2.19-2.19-6.56-2.19-6.56l6.57-6.56Z" transform="translate(-181.65 -138.5)"/><path class="cls-2" d="M234.17,226l-17.5-17.5,6.56-6.57s-6.56-2.18-2.19-6.56,6.56,2.19,6.56,2.19l6.57-6.56,6.56,6.56s-6.56,2.19-2.19,6.56S245.1,202,245.1,202l6.57,6.57Z" transform="translate(-181.65 -138.5)"/><path class="cls-2" d="M199.17,191l17.5-17.5,6.56,6.56s2.19-6.56,6.56-2.19-2.19,6.56-2.19,6.56l6.57,6.57-6.57,6.56s-2.18-6.56-6.56-2.19,2.19,6.56,2.19,6.56l-6.56,6.57Z" transform="translate(-181.65 -138.5)"/><path class="cls-2" d="M234.17,156l17.5,17.5-6.57,6.56s6.57,2.19,2.19,6.56-6.56-2.19-6.56-2.19L234.17,191l-6.57-6.57s6.57-2.18,2.19-6.56-6.56,2.19-6.56,2.19l-6.56-6.56Z" transform="translate(-181.65 -138.5)"/></svg>